<svg width="107" height="119" viewBox="0 0 107 119" fill="none" xmlns="http://www.w3.org/2000/svg">
<path d="M94.6667 11.8333H88.75V0H76.9167V11.8333H29.5833V0H17.75V11.8333H11.8333C5.325 11.8333 0 17.1583 0 23.6667V106.5C0 113.008 5.325 118.333 11.8333 118.333H94.6667C101.175 118.333 106.5 113.008 106.5 106.5V23.6667C106.5 17.1583 101.175 11.8333 94.6667 11.8333ZM94.6667 106.5H11.8333V47.3333H94.6667V106.5ZM11.8333 35.5V23.6667H94.6667V35.5H11.8333ZM23.6667 59.1667H82.8333V71H23.6667V59.1667ZM23.6667 82.8333H65.0833V94.6667H23.6667V82.8333Z" fill="#061770"/>
</svg>
